<svg width="24" height="24" viewBox="0 0 24 24" fill="none" xmlns="http://www.w3.org/2000/svg">
  <path d="M12 22C17.5228 22 22 17.5228 22 12C22 6.47715 17.5228 2 12 2C6.47715 2 2 6.47715 2 12C2 17.5228 6.47715 22 12 22Z" fill="#0052FF"/>
  <path d="M12.3734 9.04297C13.8055 9.04297 14.9648 10.2023 14.9648 11.6344C14.9648 13.0664 13.8055 14.2258 12.3734 14.2258H8.82422V16.3883H12.3734C14.997 16.3883 17.1273 14.258 17.1273 11.6344C17.1273 9.01078 14.997 6.88047 12.3734 6.88047H8.82422V9.04297H12.3734Z" fill="white"/>
  <path d="M8.82422 7.61797V9.04297V14.2258V16.3883V16.9196C7.55078 16.9196 6.51953 15.8883 6.51953 14.6149V9.91953C6.51953 8.65234 7.55703 7.61797 8.82422 7.61797Z" fill="white"/>
</svg> 