<svg width="24" height="24" viewBox="0 0 24 24" fill="none" xmlns="http://www.w3.org/2000/svg">
  <path d="M21.3941 2L13.2359 8.33594L14.7023 4.7224L21.3941 2Z" fill="#E17726"/>
  <path d="M2.60645 2L10.6813 8.40525L9.29834 4.7224L2.60645 2Z" fill="#E27625"/>
  <path d="M18.5487 16.5329L16.3873 19.9442L20.9743 21.2882L22.2943 16.6022L18.5487 16.5329Z" fill="#E27625"/>
  <path d="M1.71875 16.6022L3.02947 21.2882L7.61655 19.9442L5.46435 16.5329L1.71875 16.6022Z" fill="#E27625"/>
  <path d="M7.37778 10.6314L6.1423 12.654L10.6772 12.8618L10.5232 7.91504L7.37778 10.6314Z" fill="#E27625"/>
  <path d="M16.6218 10.631L13.4388 7.84531L13.2344 12.8618L17.7773 12.654L16.6218 10.631Z" fill="#E27625"/>
  <path d="M7.61621 19.9444L10.4081 18.5311L8.03841 16.6406L7.61621 19.9444Z" fill="#E27625"/>
  <path d="M13.5918 18.5311L16.3836 19.9444L15.9614 16.6406L13.5918 18.5311Z" fill="#E27625"/>
  <path d="M16.3836 19.9448L13.5918 18.5315L13.8202 20.4221L13.7894 21.2191L16.3836 19.9448Z" fill="#D5BFB2"/>
  <path d="M7.61621 19.9448L10.2103 21.2191L10.1875 20.4221L10.4081 18.5315L7.61621 19.9448Z" fill="#D5BFB2"/>
  <path d="M10.2642 15.3087L7.9707 14.5813L9.58885 13.7842L10.2642 15.3087Z" fill="#233447"/>
  <path d="M13.7363 15.3087L14.4117 13.7842L16.0378 14.5813L13.7363 15.3087Z" fill="#233447"/>
  <path d="M7.61682 19.9446L8.0623 16.5332L5.46484 16.6025L7.61682 19.9446Z" fill="#CC6228"/>
  <path d="M15.9375 16.5332L16.383 19.9446L18.535 16.6025L15.9375 16.5332Z" fill="#CC6228"/>
  <path d="M17.7778 12.6539L13.2349 12.8617L13.7359 15.3091L14.4112 13.7846L16.0373 14.5817L17.7778 12.6539Z" fill="#CC6228"/>
  <path d="M7.9707 14.5817L9.58885 13.7846L10.2642 15.3091L10.7732 12.8617L6.1423 12.6539L7.9707 14.5817Z" fill="#CC6228"/>
  <path d="M6.14258 12.6539L8.03773 16.6022L7.97078 14.5817L6.14258 12.6539Z" fill="#E27525"/>
  <path d="M16.0372 14.5817L15.9624 16.6022L17.7776 12.6539L16.0372 14.5817Z" fill="#E27525"/>
  <path d="M10.7732 12.8618L10.2642 15.3092L10.9087 18.0255L11.1442 14.2354L10.7732 12.8618Z" fill="#E27525"/>
  <path d="M13.2349 12.8618L12.8718 14.2276L13.0995 18.0255L13.7359 15.3092L13.2349 12.8618Z" fill="#E27525"/>
  <path d="M13.7364 15.3084L13.0999 18.0247L13.592 18.5303L15.9617 16.6398L16.0365 14.6191L13.7364 15.3084Z" fill="#F5841F"/>
  <path d="M7.9707 14.6191L8.03765 16.6398L10.4073 18.5303L10.8994 18.0247L10.2629 15.3084L7.9707 14.6191Z" fill="#F5841F"/>
  <path d="M13.7892 21.2192L13.82 20.4222L13.6068 20.2414H10.3922L10.1867 20.4222L10.2095 21.2192L7.61523 19.9449L8.58137 20.7343L10.3615 22H13.6298L15.4176 20.7343L16.3838 19.9449L13.7892 21.2192Z" fill="#C0AC9D"/>
  <path d="M13.5925 18.5311L13.1004 18.0254H10.8996L10.4075 18.5311L10.1869 20.4217L10.3924 20.2409H13.607L13.8202 20.4217L13.5925 18.5311Z" fill="#161616"/>
  <path d="M21.8021 8.2126L22.5312 5.09108L21.3942 2L13.5918 7.70711L16.6219 10.6308L20.8618 11.9054L21.7889 10.8219L21.3707 10.5157L22.0304 9.90321L21.5196 9.50861L22.1793 8.99968L21.8021 8.2126Z" fill="#763E1A"/>
  <path d="M1.46875 5.09108L2.20708 8.2126L1.81978 8.99968L2.4873 9.50861L1.96874 9.90321L2.62846 10.5157L2.21025 10.8219L3.13734 11.9054L7.37729 10.6308L10.4074 7.70711L2.60499 2L1.46875 5.09108Z" fill="#763E1A"/>
  <path d="M20.8613 11.9054L16.6214 10.6309L17.7769 12.6538L15.9617 16.6021L18.5361 16.6021H22.2933L20.8613 11.9054Z" fill="#F5841F"/>
  <path d="M7.3773 10.6309L3.13735 11.9054L1.71387 16.6021H5.46396L8.03772 16.6021L6.22254 12.6538L7.3773 10.6309Z" fill="#F5841F"/>
  <path d="M13.2347 12.8618L13.5919 7.70708L14.7027 4.72229H9.29785L10.4086 7.70708L10.7739 12.8618L10.8904 14.2431L10.8981 18.0254H13.0989L13.1144 14.2431L13.2347 12.8618Z" fill="#F5841F"/>
</svg> 