<svg width="24" height="24" viewBox="0 0 24 24" fill="none" xmlns="http://www.w3.org/2000/svg">
  <path d="M12.0004 3L17.9339 6.5V13.5L12.0004 17L6.06689 13.5V6.5L12.0004 3Z" fill="#8247E5"/>
  <path d="M12.0005 13.9981C12.1989 13.9981 12.3904 13.9305 12.5452 13.8035L15.3275 12.0162C15.6334 11.8149 15.8315 11.4885 15.8315 11.1347V7.56021C15.8315 7.20651 15.6334 6.8801 15.3275 6.67877L12.5452 4.89153C12.3904 4.7645 12.1989 4.69685 12.0005 4.69685C11.8022 4.69685 11.6107 4.7645 11.4558 4.89153L8.67354 6.67877C8.36773 6.8801 8.16956 7.20651 8.16956 7.56021V11.1347C8.16956 11.4885 8.36773 11.8149 8.67354 12.0162L11.4558 13.8035C11.6107 13.9305 11.8022 13.9981 12.0005 13.9981Z" fill="white"/>
  <path d="M16.9417 14.7097C16.7433 14.7097 16.5519 14.642 16.397 14.515L14.0168 13.0273C13.711 12.8259 13.5128 12.4995 13.5128 12.1458V11.3525C13.5128 11.2137 13.6255 11.101 13.7643 11.101C13.903 11.101 14.0158 11.2137 14.0158 11.3525V12.1458C14.0158 12.3285 14.1194 12.4925 14.2879 12.5961L16.6682 14.0837C16.8367 14.1873 17.0467 14.1873 17.2151 14.0837L19.5954 12.5961C19.7639 12.4925 19.8675 12.3285 19.8675 12.1458V9.17059C19.8675 8.98786 19.7639 8.82383 19.5954 8.72022L17.2151 7.23268C17.0467 7.12907 16.8367 7.12907 16.6682 7.23268L14.2879 8.72022C14.1194 8.82383 14.0158 8.98786 14.0158 9.17059V9.96394C14.0158 10.1027 13.903 10.2155 13.7643 10.2155C13.6255 10.2155 13.5128 10.1027 13.5128 9.96394V9.17059C13.5128 8.81689 13.711 8.49048 14.0168 8.28914L16.397 6.80161C16.5519 6.67458 16.7433 6.60693 16.9417 6.60693C17.14 6.60693 17.3315 6.67458 17.4863 6.80161L19.8666 8.28914C20.1724 8.49048 20.3706 8.81689 20.3706 9.17059V12.1458C20.3706 12.4995 20.1724 12.8259 19.8666 13.0273L17.4863 14.515C17.3315 14.642 17.14 14.7097 16.9417 14.7097Z" fill="white"/>
  <path d="M7.05807 14.7097C6.85973 14.7097 6.66828 14.642 6.51342 14.515L4.13316 13.0273C3.82735 12.8259 3.62918 12.4995 3.62918 12.1458V9.17059C3.62918 8.81689 3.82735 8.49048 4.13316 8.28914L6.51342 6.80161C6.66828 6.67458 6.85973 6.60693 7.05807 6.60693C7.25641 6.60693 7.44787 6.67458 7.60272 6.80161L9.98298 8.28914C10.2888 8.49048 10.487 8.81689 10.487 9.17059V9.96394C10.487 10.1027 10.3742 10.2155 10.2354 10.2155C10.0967 10.2155 9.98398 10.1027 9.98398 9.96394V9.17059C9.98398 8.98786 9.88037 8.82383 9.71188 8.72022L7.33162 7.23268C7.16314 7.12907 6.95315 7.12907 6.78467 7.23268L4.4044 8.72022C4.23592 8.82383 4.1323 8.98786 4.1323 9.17059V12.1458C4.1323 12.3285 4.23592 12.4925 4.4044 12.5961L6.78467 14.0837C6.95315 14.1873 7.16314 14.1873 7.33162 14.0837L9.71188 12.5961C9.88037 12.4925 9.98398 12.3285 9.98398 12.1458V11.3525C9.98398 11.2137 10.0967 11.101 10.2354 11.101C10.3742 11.101 10.487 11.2137 10.487 11.3525V12.1458C10.487 12.4995 10.2888 12.8259 9.98298 13.0273L7.60272 14.515C7.44787 14.642 7.25641 14.7097 7.05807 14.7097Z" fill="white"/>
  <path d="M12.0003 19.3C11.8019 19.3 11.6105 19.2323 11.4556 19.1053L9.0754 17.6177C8.92539 17.5251 8.84094 17.3545 8.84094 17.1818V16.3517C8.84094 16.213 8.95373 16.1002 9.09248 16.1002C9.23123 16.1002 9.34406 16.213 9.34406 16.3517V16.9843L11.7243 18.472C11.8927 18.5757 12.1027 18.5757 12.2712 18.472L14.6515 16.9843V16.3517C14.6515 16.213 14.7643 16.1002 14.903 16.1002C15.0418 16.1002 15.1546 16.213 15.1546 16.3517V17.1818C15.1546 17.3545 15.0702 17.5251 14.9202 17.6177L12.5399 19.1053C12.385 19.2323 12.1936 19.3 12.0003 19.3Z" fill="white"/>
</svg> 