<svg width="24" height="24" viewBox="0 0 24 24" fill="none" xmlns="http://www.w3.org/2000/svg">
  <path d="M4.98771 7.76062C8.97916 3.90807 15.3463 3.90807 19.3375 7.76062L19.7515 8.16246C19.9153 8.32192 19.9153 8.57722 19.7515 8.73684L18.1922 10.2521C18.1103 10.332 17.9824 10.332 17.9003 10.2521L17.3322 9.70069C14.5074 6.9627 9.81793 6.9627 6.99317 9.70069L6.38261 10.2954C6.30082 10.3753 6.17282 10.3753 6.09089 10.2954L4.53164 8.78027C4.36777 8.62065 4.36777 8.36518 4.53164 8.20574L4.98771 7.76062Z" fill="#3B99FC"/>
  <path d="M16.2936 10.8291L17.6969 12.1941C17.8607 12.3537 17.8607 12.609 17.6969 12.7686L13.2121 17.1297C13.1303 17.2096 13.0023 17.2096 12.9205 17.1297L9.77944 14.0833C9.73841 14.0436 9.67489 14.0436 9.63398 14.0833L6.49291 17.1297C6.41099 17.2096 6.28298 17.2096 6.20118 17.1297L1.71639 12.7686C1.55251 12.609 1.55251 12.3537 1.71639 12.1941L3.11966 10.8291C3.28354 10.6696 3.53907 10.6696 3.70294 10.8291L6.84402 13.8753C6.88492 13.9152 6.9485 13.9152 6.98941 13.8753L10.1303 10.8291C10.2123 10.7492 10.3404 10.7492 10.4222 10.8291L13.5634 13.8753C13.6043 13.9152 13.6679 13.9152 13.7088 13.8753L16.8497 10.8291C17.0138 10.6696 17.2695 10.6696 17.4332 10.8291H16.2936Z" fill="#3B99FC"/>
</svg> 