<svg xmlns="http://www.w3.org/2000/svg" viewBox="0 0 32 32" fill="none">
  <path d="M16 32C24.8366 32 32 24.8366 32 16C32 7.16344 24.8366 0 16 0C7.16344 0 0 7.16344 0 16C0 24.8366 7.16344 32 16 32Z" fill="#6B7280" />
  <path d="M22 10H10C8.89543 10 8 10.8954 8 12V20C8 21.1046 8.89543 22 10 22H22C23.1046 22 24 21.1046 24 20V12C24 10.8954 23.1046 10 22 10Z" stroke="white" stroke-width="2" stroke-linecap="round" stroke-linejoin="round" />
  <path d="M8 14H24" stroke="white" stroke-width="2" stroke-linecap="round" stroke-linejoin="round" />
  <path d="M8 18H24" stroke="white" stroke-width="2" stroke-linecap="round" stroke-linejoin="round" />
  <path d="M12 10V22" stroke="white" stroke-width="2" stroke-linecap="round" stroke-linejoin="round" />
  <path d="M16 10V22" stroke="white" stroke-width="2" stroke-linecap="round" stroke-linejoin="round" />
  <path d="M20 10V22" stroke="white" stroke-width="2" stroke-linecap="round" stroke-linejoin="round" />
</svg> 