<svg xmlns="http://www.w3.org/2000/svg" viewBox="0 0 32 32" fill="none">
  <path d="M16 32C24.8366 32 32 24.8366 32 16C32 7.16344 24.8366 0 16 0C7.16344 0 0 7.16344 0 16C0 24.8366 7.16344 32 16 32Z" fill="#8247E5" />
  <path d="M21.092 13.12C20.686 12.883 20.173 12.883 19.735 13.12L16.866 14.773L14.8 15.953L11.931 17.607C11.525 17.844 11.013 17.844 10.575 17.607L8.198 16.19C7.792 15.953 7.512 15.48 7.512 14.98V12.173C7.512 11.673 7.792 11.2 8.198 10.963L10.543 9.547C10.949 9.31 11.462 9.31 11.899 9.547L14.245 10.963C14.651 11.2 14.931 11.673 14.931 12.173V13.827L16.997 12.62V10.963C16.997 10.463 16.717 9.99 16.311 9.753L11.93 7.287C11.524 7.05 11.012 7.05 10.574 7.287L6.131 9.753C5.725 9.99 5.444 10.463 5.444 10.963V16.19C5.444 16.69 5.725 17.163 6.131 17.4L10.574 19.867C10.98 20.103 11.493 20.103 11.93 19.867L14.8 18.24L16.866 17.033L19.735 15.407C20.141 15.17 20.654 15.17 21.092 15.407L23.438 16.823C23.844 17.06 24.124 17.533 24.124 18.033V20.84C24.124 21.34 23.844 21.813 23.438 22.05L21.092 23.493C20.686 23.73 20.173 23.73 19.735 23.493L17.389 22.077C16.983 21.84 16.703 21.367 16.703 20.867V19.213L14.637 20.42V22.077C14.637 22.577 14.917 23.05 15.323 23.287L19.767 25.753C20.173 25.99 20.686 25.99 21.124 25.753L25.567 23.287C25.973 23.05 26.254 22.577 26.254 22.077V16.85C26.254 16.35 25.973 15.877 25.567 15.64L21.092 13.12Z" fill="white" />
</svg> 