<svg xmlns="http://www.w3.org/2000/svg" viewBox="0 0 32 32" fill="none">
  <path d="M16 32C24.8366 32 32 24.8366 32 16C32 7.16344 24.8366 0 16 0C7.16344 0 0 7.16344 0 16C0 24.8366 7.16344 32 16 32Z" fill="#000000" />
  <path d="M8.5 20.17L10.912 17.647H22.352C22.841 17.647 23.099 18.235 22.776 18.588L20.365 21.111H8.924C8.435 21.111 8.176 20.523 8.5 20.17Z" fill="#00FFA3" />
  <path d="M8.5 11.853L10.912 9.33H22.352C22.841 9.33 23.099 9.918 22.776 10.271L20.365 12.794H8.924C8.435 12.794 8.176 12.206 8.5 11.853Z" fill="#00FFA3" />
  <path d="M22.776 16.012L20.365 13.489H8.924C8.435 13.489 8.176 14.076 8.5 14.429L10.912 16.953H22.352C22.841 16.953 23.099 16.365 22.776 16.012Z" fill="#00FFA3" />
</svg> 